<svg viewBox="0 0 100 100" fill="#53b2f8" version="1.0" width="100" height="92"><path d="M0 50C0 22.386 22.386 0 50 0s50 22.386 50 50c0 13.807-4.882 25.592-14.645 35.355C75.592 95.118 63.807 100 50 100 22.386 100 0 77.614 0 50zm8.3 0c0 23.03 18.67 41.7 41.7 41.7S91.7 73.03 91.7 50c0-11.515-4.071-21.344-12.214-29.486C71.344 12.37 61.516 8.3 50 8.3 26.97 8.3 8.3 26.97 8.3 50zm38.73 27.97c-.82-.82-1.23-1.81-1.23-2.97v-4.2a4.2 4.2 0 118.4 0V75c0 1.16-.41 2.15-1.23 2.97-.82.82-1.81 1.23-2.97 1.23-1.16 0-2.15-.41-2.97-1.23zm.035-20.865c-.818-.798-1.238-1.763-1.265-2.905V25a4.2 4.2 0 118.4 0v29.2c-.027 1.142-.447 2.107-1.265 2.905-.817.798-1.793 1.195-2.935 1.195-1.142 0-2.118-.397-2.935-1.195z"/></svg>
