<svg viewBox="0 0 100 100" fill="#53b2f8" version="1.0" width="100" height="92"><path d="M83.3 34.5a6.547 6.547 0 01-.2.7 3.13 3.13 0 01-.27.423 3.13 3.13 0 01-.33.377v.3L40.9 78c-42.4 43.7 0 0-.2 0-.107.108-.206.19-.33.28a2.466 2.466 0 01-.37.22 3.035 3.035 0 01-.39.177c-.141.053-.263.09-.41.123H39L22.3 83c-.175.021-.324.03-.5.03s-.325-.009-.5-.03a3.999 3.999 0 01-1.62-.3 3.999 3.999 0 01-1.38-.9 4.01 4.01 0 01-1.078-1.855A4.01 4.01 0 0117.2 77.8l4.2-16.6c-19.5-16.8 0 0 0-.3a5.59 5.59 0 01.3-.8l.5-.6v-.3l41.6-41.7.5-.3.7-.4.8-.3h.4c2.56-.363 4.8-.184 7.27.579 2.47.762 4.42 1.878 6.33 3.621 1.559 1.942 2.53 3.87 3.164 6.278.634 2.408.737 4.565.336 7.022 83.3-51 0 .3 0 .5zm-12.313-9.217A7.136 7.136 0 0068.3 25L28.5 64.7l-2.2 8.8 8.8-2.2L75 31.5a7.608 7.608 0 00-.378-2.635A7.608 7.608 0 0073.4 26.5a7.136 7.136 0 00-2.413-1.217z"/></svg>
