<svg viewBox="0 0 100 100" fill="#e1e7eb" version="1.0" width="100" height="92"><path d="M0 50C0 22.386 22.386 0 50 0s50 22.386 50 50c0 13.807-4.882 25.592-14.645 35.355C75.592 95.118 63.807 100 50 100 22.386 100 0 77.614 0 50zm8.3 0c0 23.03 18.67 41.7 41.7 41.7S91.7 73.03 91.7 50c0-11.515-4.071-21.344-12.214-29.486C71.344 12.37 61.516 8.3 50 8.3 26.97 8.3 8.3 26.97 8.3 50zm50.5 26.8c-4.604 1.834-9.464 1.034-13.238-2.18-3.773-3.212-5.338-7.882-4.262-12.72l4.6-21.2a4.209 4.209 0 118.2 1.9l-4.7 21.1c-.2.87-.164 1.658.113 2.508.277.85.712 1.506 1.387 2.092a4.491 4.491 0 002.303 1.017c.886.13 1.67.03 2.497-.317l5.3-2c2.202-1.356 5.177-.358 6.115 2.052.94 2.41-.576 5.157-3.115 5.648l-5.2 2.1zM45.7 27.034a6.303 6.303 0 016.334-6.333A6.303 6.303 0 0158.3 27.1c-.027 1.705-.639 3.15-1.844 4.356-1.206 1.205-2.651 1.817-4.356 1.844a6.303 6.303 0 01-6.4-6.266z"/></svg>
