<?xml version="1.0" encoding="utf-8"?>
<svg version="1.1" id="icon-filter" xmlns="http://www.w3.org/2000/svg" xmlns:xlink="http://www.w3.org/1999/xlink" x="0px" y="0px"
	 width="24px" height="24px" viewBox="0 0 24 24" style="enable-background:new 0 0 24 24;" xml:space="preserve">
<path fill="#4db2ff" d="M21.7,3.7L13,12.4V20l-2,2v-9.6L2.3,3.7c-0.4-0.4-0.4-1,0-1.4c0,0,0,0,0,0C2.5,2.1,2.8,2,3.1,2h17.8
	c0.3,0,0.6,0.1,0.8,0.3C22.1,2.7,22.1,3.3,21.7,3.7C21.7,3.7,21.7,3.7,21.7,3.7z M5.5,4l6.5,6.6L18.5,4H5.5L5.5,4z"/>
</svg>
